<svg width="2598" height="2599" xmlns="http://www.w3.org/2000/svg" xmlns:xlink="http://www.w3.org/1999/xlink" xml:space="preserve" overflow="hidden"><defs><clipPath id="clip0"><rect x="850" y="-113" width="2598" height="2599"/></clipPath></defs><g clip-path="url(#clip0)" transform="translate(-850 113)"><rect x="0" y="0" width="226.544" height="130.705" transform="matrix(-0.694926 0.719081 0.719081 0.694926 2625.93 1064.55)"/><rect x="0" y="0" width="2940.31" height="88.794" stroke="#000000" stroke-width="4.58333" stroke-miterlimit="8" transform="matrix(-0.694926 0.719081 0.719081 0.694926 3292.71 142.043)"/><path d="M3375.32 65.0794 3367.22 206.641 3267.97 176.163Z" fill-rule="evenodd"/><path d="M0 76.1653 115.478 0 230.957 76.1653Z" fill-rule="evenodd" transform="matrix(0.743915 -0.668274 -0.668274 -0.743915 2613.94 1232.73)"/><path d="M0 81.81 121.478 0 242.956 81.81Z" stroke="#000000" stroke-width="4.58333" stroke-miterlimit="8" fill-rule="evenodd" transform="matrix(0.929577 -0.368627 -0.368627 -0.929577 2415.13 1373.39)"/><rect x="0" y="0" width="454.384" height="100.417" stroke="#000000" stroke-width="4.58333" stroke-miterlimit="8" transform="matrix(-0.694926 0.719081 0.719081 0.694926 2341.52 1405.29)"/><path d="M2407.17 1340.06 2412.02 1472.38 2290.21 1420.48Z" fill="#FFFFFF" fill-rule="evenodd"/><rect x="0" y="0" width="595.833" height="37.7562" transform="matrix(-0.694926 0.719081 0.719081 0.694926 3145.69 599.219)"/><path d="M2037.39 1702.25 2081.94 1804.72 1925.69 1817.83Z" fill="#FFFFFF" fill-rule="evenodd"/><rect x="0" y="0" width="2722.68" height="130.974" stroke="#000000" stroke-width="4.58333" stroke-miterlimit="8" transform="matrix(-0.694926 0.719081 0.719081 0.694926 3140.88 -4.6913)"/><path d="M0 112.836 106.573 0 162.729 112.836Z" stroke="#000000" stroke-width="4.58333" stroke-miterlimit="8" fill-rule="evenodd" transform="matrix(-0.694926 0.719081 0.719081 0.694926 3224.35 -92.2913)"/><rect x="0" y="0" width="399.545" height="118.761" stroke="#000000" stroke-width="4.58333" stroke-miterlimit="8" transform="matrix(-0.694926 0.719081 0.719081 0.694926 1932.45 936.298)"/><rect x="0" y="0" width="1187.65" height="58.4321" stroke="#000000" stroke-width="4.58333" stroke-miterlimit="8" transform="matrix(-0.694926 0.719081 0.719081 0.694926 2527.09 414.976)"/><path d="M0 93.4726 132.68 0 265.36 93.4726Z" stroke="#000000" stroke-width="4.58333" stroke-miterlimit="8" fill-rule="evenodd" transform="matrix(-0.694926 0.719081 0.719081 0.694926 1996.65 854.027)"/><rect x="0" y="0" width="151.144" height="119.876" stroke="#FFFFFF" stroke-width="4.58333" stroke-miterlimit="8" fill="#FFFFFF" transform="matrix(-0.694926 0.719081 0.719081 0.694926 1173.38 1734.8)"/><path d="M1155.55 1739.24 1185.8 1908.88 1015.22 1884.45Z" stroke="#000000" stroke-width="4.58333" stroke-miterlimit="8" fill-rule="evenodd"/><path d="M0 172.284 257.532 0 340.894 172.284Z" stroke="#000000" stroke-width="4.58333" stroke-miterlimit="8" fill-rule="evenodd" transform="matrix(-0.694926 0.719081 0.719081 0.694926 1277.24 1571.3)"/><path d="M3374.63 186.053 3334.62 381.408 3257.69 307.059Z" stroke="#000000" stroke-width="4.58333" stroke-miterlimit="8" fill-rule="evenodd"/><path d="M0 123.75 525.779 0 525.779 123.75Z" fill-rule="evenodd" transform="matrix(-0.694926 0.719081 0.719081 0.694926 3059.81 -83.0389)"/><rect x="0" y="0" width="275" height="123.75" transform="matrix(-0.694926 0.719081 0.719081 0.694926 1360.28 1678.42)"/><rect x="0" y="0" width="1390.18" height="123.75" stroke="#000000" stroke-width="4.58333" stroke-miterlimit="8" transform="matrix(-0.694926 0.719081 0.719081 0.694926 2694.5 295.103)"/><rect x="0" y="0" width="2904.31" height="168.427" transform="matrix(-0.694926 0.719081 0.719081 0.694926 3271.26 -5.31825)"/><path d="M0 146.421 212.908 0 212.908 146.421Z" fill-rule="evenodd" transform="matrix(-0.694926 0.719081 0.719081 0.694926 1472.95 1529.21)"/><path d="M1180.01 1864.96 1250.58 1940.08 1123.4 1923.54Z" fill-rule="evenodd"/><path d="M1875.1 1735.9 1964.08 1821.9 1804.72 1808.72Z" fill-rule="evenodd"/><rect x="0" y="0" width="340.894" height="38.9764" transform="matrix(-0.694926 0.719081 0.719081 0.694926 1537.79 2086.97)"/><path d="M0 85.25 29.8402 0 165 85.25Z" fill-rule="evenodd" transform="matrix(-0.694926 0.719081 0.719081 0.694926 1311.24 2078.23)"/><rect x="0" y="0" width="388.276" height="46.4219" transform="matrix(-0.694926 0.719081 0.719081 0.694926 2381.45 1494.8)"/><path d="M2394.02 1620.24 2234.8 1784.99 2188.29 1785.79 2164.64 1762.93 2164.64 1762.93 2369.57 1550.87 2369.57 1550.87 2393.23 1573.73Z" fill-rule="evenodd"/><rect x="0" y="0" width="450.14" height="26.4531" transform="matrix(-0.694926 0.719081 0.719081 0.694926 1822.94 1336.83)"/><rect x="0" y="0" width="346.06" height="41.8938" transform="matrix(-0.694926 0.719081 0.719081 0.694926 1890.82 945.951)"/><path d="M0 56.8225 101.266 0 202.532 56.8225Z" fill-rule="evenodd" transform="matrix(-0.694926 0.719081 0.719081 0.694926 1767.19 1001.3)"/><path d="M0 139.643 239.103 0 239.103 139.643Z" fill-rule="evenodd" transform="matrix(-0.694926 0.719081 0.719081 0.694926 1101.11 1622.45)"/><path d="M1037.74 1893.72 887.026 1850.23 1015.84 1760.72Z" fill-rule="evenodd"/><rect x="0" y="0" width="203.768" height="30.4258" transform="matrix(-0.694926 0.719081 0.719081 0.694926 2698.69 1166.54)"/><rect x="0" y="0" width="1988.25" height="439.409" stroke="#000000" stroke-width="4.58333" stroke-miterlimit="8" transform="matrix(-0.694926 0.719081 0.719081 0.694926 3029.8 86.8262)"/><path d="M0 230.804C2.46196 219.158 4.92392 207.512 34.0879 190.572 63.2518 173.633 109.459 149.635 174.983 129.166 240.507 108.697 333.3 85.0517 427.23 67.759 521.161 50.4663 635.164 36.7027 738.563 25.4097 841.962 14.1163 949.528 2.82333 1047.62 0L1327.14 8.47001C1400.62 11.2933 1444.55 14.1163 1488.49 16.9397" stroke="#7F7F7F" stroke-width="45.8333" stroke-linecap="round" stroke-linejoin="round" stroke-miterlimit="10" fill="none" fill-rule="evenodd" transform="matrix(-0.694926 0.719081 0.719081 0.694926 3110.85 -189.072)"/><path d="M0 153.747C75.1242 115.704 150.249 77.662 223.728 52.0374 297.208 26.4128 369.042 13.2062 440.877 0" stroke="#7F7F7F" stroke-width="45.8333" stroke-linecap="round" stroke-linejoin="round" stroke-miterlimit="10" fill="none" fill-rule="evenodd" transform="matrix(-0.694926 0.719081 0.719081 0.694926 1977.62 785.756)"/><path d="M0 0C35.793 22.8147 71.5859 45.6298 89.6791 65.6164 107.772 85.603 105.019 100.31 108.559 119.92 112.099 139.529 118.392 160.27 110.919 183.273 103.446 206.277 70.0126 247.381 63.7192 257.94 57.4259 268.499 65.2926 257.563 73.1593 246.627" stroke="#7F7F7F" stroke-width="45.8333" stroke-linecap="round" stroke-linejoin="round" stroke-miterlimit="10" fill="none" fill-rule="evenodd" transform="matrix(-0.694926 0.719081 0.719081 0.694926 1671.24 1102.78)"/><path d="M0 306.694 237.109 311.275C299.264 313.948 301.183 348.31 372.929 322.73 444.676 297.149 587.785 205.516 667.589 157.79 747.393 110.064 803.026 62.3385 851.752 36.3758 900.478 10.413 933.858 2.01337 959.948 2.01337 986.037 2.01337 1024.4-12.4953 1008.29 36.3758 992.176 85.2468 892.421 237.587 863.262 295.24 834.103 352.892 815.303 351.365 833.336 382.291 851.368 413.218 931.172 444.525 971.458 480.797 1011.74 517.068 1064.69 566.321 1075.05 599.92 1085.41 633.519 1072.36 667.499 1033.61 682.39 994.862 697.281 898.176 695.753 842.544 689.262 786.912 682.772 781.54 654.518 699.818 643.446 618.096 632.374 485.153 627.601 352.211 622.829" stroke="#7F7F7F" stroke-width="45.8333" stroke-linecap="round" stroke-linejoin="round" stroke-miterlimit="10" fill="none" fill-rule="evenodd" transform="matrix(-0.694926 0.719081 0.719081 0.694926 1594.8 1116.36)"/><path d="M796.426 0C738.399 73.5513 680.373 147.103 602.881 199.449 525.389 251.794 431.953 330.504 331.473 314.074 230.993 297.644 115.497 199.257 0 100.87" stroke="#7F7F7F" stroke-width="45.8333" stroke-linecap="round" stroke-linejoin="round" stroke-miterlimit="10" fill-rule="evenodd" transform="matrix(-0.694926 0.719081 0.719081 0.694926 2351.35 1229.42)"/><path d="M387.876 0C388.99 23.6662 390.105 47.3328 356.667 71.5409 323.23 95.749 246.694 149.585 187.25 145.249 127.806 140.913 63.9027 93.2195 0 45.5261" stroke="#7F7F7F" stroke-width="45.8333" stroke-linecap="round" stroke-linejoin="round" stroke-miterlimit="10" fill="none" fill-rule="evenodd" transform="matrix(-0.694926 0.719081 0.719081 0.694926 2696.23 1026.51)"/><path d="M1162.23 357.529C1071.78 369.241 981.341 380.953 848.374 379.72 715.406 378.488 475.425 364.104 364.419 350.132 253.413 336.159 238.24 328.762 182.338 295.886 126.435 263.01 59.3525 202.189 29.0054 152.875-1.34169 103.56-0.543012 51.7802 0.255663 0" stroke="#7F7F7F" stroke-width="45.8333" stroke-linecap="round" stroke-linejoin="round" stroke-miterlimit="10" fill="none" fill-rule="evenodd" transform="matrix(-0.694926 0.719081 0.719081 0.694926 3276.82 -28.6798)"/></g></svg>